<?xml version="1.0" standalone="no"?>
<!DOCTYPE svg PUBLIC "-//W3C//DTD SVG 20010904//EN"
 "http://www.w3.org/TR/2001/REC-SVG-20010904/DTD/svg10.dtd">
<svg version="1.0" xmlns="http://www.w3.org/2000/svg"
 width="172.000000pt" height="172.000000pt" viewBox="0 0 172.000000 172.000000"
 preserveAspectRatio="xMidYMid meet">
<metadata>
Created by potrace 1.14, written by Peter Selinger 2001-2017
</metadata>
<g transform="translate(0.000000,172.000000) scale(0.100000,-0.100000)"
fill="#000000" stroke="none">
<path d="M600 1633 c-49 -15 -124 -60 -150 -89 -73 -83 -99 -203 -66 -300 9
-26 16 -49 16 -50 0 -2 -19 -12 -43 -22 -55 -24 -118 -88 -148 -149 -33 -67
-33 -187 0 -255 52 -108 155 -172 277 -172 61 -1 80 4 133 31 33 17 61 29 62
25 0 -4 1 -127 1 -274 l1 -268 53 0 52 0 -1 300 -2 300 29 -6 c35 -8 89 -7
135 1 l33 6 -23 -38 c-28 -45 -30 -122 -6 -170 47 -90 160 -125 251 -78 15 8
29 15 31 15 1 0 2 -66 3 -147 0 -82 1 -156 1 -165 1 -13 9 -18 31 -18 l30 0 0
178 0 178 54 1 c181 2 254 234 104 330 -36 23 -43 34 -46 63 -7 95 -75 161
-172 168 -57 4 -58 5 -63 38 -13 80 -85 172 -162 207 -40 18 -40 18 -41 75 -3
155 -132 283 -289 288 -38 1 -77 0 -85 -3z"/>
</g>
</svg>
