<svg width="173" height="94" viewBox="0 0 173 94" fill="none" xmlns="http://www.w3.org/2000/svg">
<path fill-rule="evenodd" clip-rule="evenodd" d="M6 55H165V60.4896L172.021 67.5104L165 74.5312V79H6V73.5104L0 67.5104L6 61.5104V55Z" fill="#509C58"/>
<path d="M28.6641 74.1953C27.9414 74.1953 27.2806 74.013 26.6816 73.6484C26.0892 73.2839 25.6172 72.7956 25.2656 72.1836C24.9206 71.5651 24.748 70.8783 24.748 70.123L24.7676 63.8828C24.7676 63.1406 24.9368 62.4701 25.2754 61.8711C25.6139 61.2656 26.0794 60.7806 26.6719 60.416C27.2708 60.0449 27.9349 59.8594 28.6641 59.8594C29.4062 59.8594 30.0671 60.0384 30.6465 60.3965C31.2324 60.7546 31.6979 61.2396 32.043 61.8516C32.3945 62.457 32.5703 63.1341 32.5703 63.8828V64.8008C32.5703 64.8529 32.5443 64.8789 32.4922 64.8789H30.2461C30.194 64.8789 30.168 64.8529 30.168 64.8008V63.8828C30.168 63.4401 30.0247 63.0592 29.7383 62.7402C29.4518 62.4212 29.0938 62.2617 28.6641 62.2617C28.1888 62.2617 27.8242 62.4245 27.5703 62.75C27.3164 63.0755 27.1895 63.4531 27.1895 63.8828V70.123C27.1895 70.6113 27.3327 71.0117 27.6191 71.3242C27.9056 71.6302 28.2539 71.7832 28.6641 71.7832C29.0938 71.7832 29.4518 71.6139 29.7383 71.2754C30.0247 70.9303 30.168 70.5462 30.168 70.123V69.1953C30.168 69.1432 30.194 69.1172 30.2461 69.1172H32.5117C32.5638 69.1172 32.5898 69.1432 32.5898 69.1953V70.123C32.5898 70.8717 32.4141 71.5553 32.0625 72.1738C31.7044 72.7858 31.2324 73.2773 30.6465 73.6484C30.0605 74.013 29.3997 74.1953 28.6641 74.1953ZM40.5879 74H34.123C34.071 74 34.0449 73.9674 34.0449 73.9023L34.0645 60.1816C34.0645 60.1165 34.097 60.084 34.1621 60.084H36.3887C36.4538 60.084 36.4863 60.1165 36.4863 60.1816L36.4668 71.5391H40.5879C40.653 71.5391 40.6855 71.5716 40.6855 71.6367V73.9023C40.6855 73.9674 40.653 74 40.5879 74ZM41.3203 73.9023L43.8008 60.1621C43.8138 60.11 43.8464 60.084 43.8984 60.084H46.7988C46.8509 60.084 46.8835 60.11 46.8965 60.1621L49.2793 73.9023C49.2858 73.9674 49.2598 74 49.2012 74H46.9844C46.9193 74 46.8835 73.9674 46.877 73.9023L46.6621 72.4375H43.9375L43.7227 73.9023C43.7161 73.9674 43.6836 74 43.625 74H41.3984C41.3464 74 41.3203 73.9674 41.3203 73.9023ZM45.2363 64.6836L44.3379 70.2988H46.2617L45.4414 64.6836L45.3242 63.9414L45.2363 64.6836ZM52.873 74H50.6074C50.5553 74 50.5293 73.9674 50.5293 73.9023L50.5684 60.1621C50.5684 60.11 50.5944 60.084 50.6465 60.084H54.6895C55.4121 60.084 56.0762 60.2598 56.6816 60.6113C57.2871 60.9629 57.7689 61.4349 58.127 62.0273C58.4915 62.6198 58.6738 63.2904 58.6738 64.0391C58.6738 64.5273 58.599 64.9701 58.4492 65.3672C58.2995 65.7643 58.1237 66.0996 57.9219 66.373C57.7266 66.6465 57.5475 66.8483 57.3848 66.9785C58.1074 67.7793 58.4688 68.7201 58.4688 69.8008L58.4883 73.9023C58.4883 73.9674 58.4557 74 58.3906 74H56.125C56.0729 74 56.0469 73.9805 56.0469 73.9414V69.8008C56.0469 69.319 55.8776 68.9023 55.5391 68.5508C55.2005 68.1992 54.7839 68.0234 54.2891 68.0234H52.9707L52.9512 73.9023C52.9512 73.9674 52.9251 74 52.873 74ZM54.6895 62.4766H52.9707V65.6211H54.6895C55.0996 65.6211 55.4642 65.4681 55.7832 65.1621C56.1087 64.8561 56.2715 64.4818 56.2715 64.0391C56.2715 63.6159 56.1152 63.2513 55.8027 62.9453C55.4902 62.6328 55.1191 62.4766 54.6895 62.4766ZM66.7207 74H60.2559C60.2038 74 60.1777 73.9674 60.1777 73.9023L60.1973 60.1621C60.1973 60.11 60.2233 60.084 60.2754 60.084H66.7012C66.7533 60.084 66.7793 60.1165 66.7793 60.1816V62.418C66.7793 62.4701 66.7533 62.4961 66.7012 62.4961H62.5996V65.6211H66.7012C66.7533 65.6211 66.7793 65.6471 66.7793 65.6992L66.7988 67.9648C66.7988 68.0169 66.7728 68.043 66.7207 68.043H62.5996V71.5391H66.7207C66.7728 71.5391 66.7988 71.5716 66.7988 71.6367V73.9219C66.7988 73.974 66.7728 74 66.7207 74ZM70.7539 74H68.752C68.6478 74 68.5957 73.9544 68.5957 73.8633L68.5762 60.2402C68.5762 60.1361 68.6283 60.084 68.7324 60.084H70.5391L73.918 67.9648L73.8203 60.2402C73.8203 60.1361 73.8789 60.084 73.9961 60.084H75.9785C76.0566 60.084 76.0957 60.1361 76.0957 60.2402L76.1152 73.8828C76.1152 73.9609 76.0827 74 76.0176 74H74.2598L70.793 66.6367L70.9395 73.8438C70.9395 73.9479 70.8776 74 70.7539 74ZM81.5352 73.9805L77.9512 74C77.8861 74 77.8535 73.9674 77.8535 73.9023L77.8926 60.1621C77.8926 60.11 77.9186 60.084 77.9707 60.084L81.7109 60.0645C82.4531 60.0449 83.1237 60.2142 83.7227 60.5723C84.3281 60.9303 84.8099 61.4154 85.168 62.0273C85.5326 62.6328 85.7148 63.3034 85.7148 64.0391V69.7812C85.7148 70.5495 85.5293 71.2526 85.1582 71.8906C84.7806 72.5221 84.2793 73.0267 83.6543 73.4043C83.0293 73.7754 82.3229 73.9674 81.5352 73.9805ZM81.7109 62.457L80.3145 62.4766L80.2949 71.5391H81.5352C82.0299 71.5391 82.4466 71.3665 82.7852 71.0215C83.1237 70.6764 83.293 70.263 83.293 69.7812V64.0195C83.293 63.5964 83.1367 63.2285 82.8242 62.916C82.5117 62.597 82.1406 62.444 81.7109 62.457ZM90.9883 74.1953C90.2786 74.1953 89.6243 74.013 89.0254 73.6484C88.4329 73.2839 87.9544 72.7988 87.5898 72.1934C87.2318 71.5814 87.0527 70.9108 87.0527 70.1816L87.0723 63.8438C87.0723 63.1016 87.2513 62.4342 87.6094 61.8418C87.9609 61.2428 88.4362 60.7643 89.0352 60.4062C89.6341 60.0417 90.2852 59.8594 90.9883 59.8594C91.7174 59.8594 92.3717 60.0384 92.9512 60.3965C93.5371 60.7546 94.0059 61.2363 94.3574 61.8418C94.7155 62.4408 94.8945 63.1081 94.8945 63.8438L94.9141 70.1816C94.9141 70.9108 94.7383 71.5781 94.3867 72.1836C94.0286 72.7956 93.5534 73.2839 92.9609 73.6484C92.3685 74.013 91.7109 74.1953 90.9883 74.1953ZM90.9883 71.7832C91.3919 71.7832 91.7435 71.6204 92.043 71.2949C92.3424 70.9629 92.4922 70.5918 92.4922 70.1816L92.4727 63.8438C92.4727 63.401 92.3327 63.0267 92.0527 62.7207C91.7728 62.4147 91.418 62.2617 90.9883 62.2617C90.5781 62.2617 90.2266 62.4115 89.9336 62.7109C89.6406 63.0104 89.4941 63.388 89.4941 63.8438V70.1816C89.4941 70.6178 89.6406 70.9954 89.9336 71.3145C90.2266 71.627 90.5781 71.7832 90.9883 71.7832ZM98.6055 74H96.6035C96.4993 74 96.4473 73.9544 96.4473 73.8633L96.4277 60.2402C96.4277 60.1361 96.4798 60.084 96.584 60.084H98.3906L101.77 67.9648L101.672 60.2402C101.672 60.1361 101.73 60.084 101.848 60.084H103.83C103.908 60.084 103.947 60.1361 103.947 60.2402L103.967 73.8828C103.967 73.9609 103.934 74 103.869 74H102.111L98.6445 66.6367L98.791 73.8438C98.791 73.9479 98.7292 74 98.6055 74ZM113.244 74H110.998C110.933 74 110.9 73.9674 110.9 73.9023L110.939 60.1621C110.939 60.11 110.965 60.084 111.018 60.084H114.865C116.089 60.084 117.056 60.4583 117.766 61.207C118.482 61.9492 118.84 62.9616 118.84 64.2441C118.84 65.1816 118.654 65.9987 118.283 66.6953C117.906 67.3854 117.417 67.9193 116.818 68.2969C116.219 68.6745 115.568 68.8633 114.865 68.8633H113.342V73.9023C113.342 73.9674 113.309 74 113.244 74ZM114.865 62.457L113.342 62.4766V66.4414H114.865C115.288 66.4414 115.656 66.2396 115.969 65.8359C116.281 65.4258 116.438 64.8952 116.438 64.2441C116.438 63.7233 116.298 63.2969 116.018 62.9648C115.738 62.6263 115.354 62.457 114.865 62.457ZM119.367 73.9023L121.848 60.1621C121.861 60.11 121.893 60.084 121.945 60.084H124.846C124.898 60.084 124.93 60.11 124.943 60.1621L127.326 73.9023C127.333 73.9674 127.307 74 127.248 74H125.031C124.966 74 124.93 73.9674 124.924 73.9023L124.709 72.4375H121.984L121.77 73.9023C121.763 73.9674 121.73 74 121.672 74H119.445C119.393 74 119.367 73.9674 119.367 73.9023ZM123.283 64.6836L122.385 70.2988H124.309L123.488 64.6836L123.371 63.9414L123.283 64.6836ZM130.92 74H128.654C128.602 74 128.576 73.9674 128.576 73.9023L128.615 60.1621C128.615 60.11 128.641 60.084 128.693 60.084H132.736C133.459 60.084 134.123 60.2598 134.729 60.6113C135.334 60.9629 135.816 61.4349 136.174 62.0273C136.538 62.6198 136.721 63.2904 136.721 64.0391C136.721 64.5273 136.646 64.9701 136.496 65.3672C136.346 65.7643 136.171 66.0996 135.969 66.373C135.773 66.6465 135.594 66.8483 135.432 66.9785C136.154 67.7793 136.516 68.7201 136.516 69.8008L136.535 73.9023C136.535 73.9674 136.503 74 136.438 74H134.172C134.12 74 134.094 73.9805 134.094 73.9414V69.8008C134.094 69.319 133.924 68.9023 133.586 68.5508C133.247 68.1992 132.831 68.0234 132.336 68.0234H131.018L130.998 73.9023C130.998 73.9674 130.972 74 130.92 74ZM132.736 62.4766H131.018V65.6211H132.736C133.146 65.6211 133.511 65.4681 133.83 65.1621C134.156 64.8561 134.318 64.4818 134.318 64.0391C134.318 63.6159 134.162 63.2513 133.85 62.9453C133.537 62.6328 133.166 62.4766 132.736 62.4766ZM140.568 74H138.303C138.251 74 138.225 73.9674 138.225 73.9023L138.264 60.1816C138.264 60.1165 138.29 60.084 138.342 60.084H140.588C140.64 60.084 140.666 60.1165 140.666 60.1816V64.918L143.801 60.1621C143.853 60.11 143.902 60.084 143.947 60.084H146.242C146.301 60.084 146.314 60.11 146.281 60.1621L142.824 65.6797L146.701 73.9219C146.734 73.974 146.701 74 146.604 74H144.162C144.097 74 144.058 73.974 144.045 73.9219L141.34 68.043L140.646 69.1367V73.9023C140.646 73.9674 140.62 74 140.568 74Z" fill="#F0F0F0"/>
<path d="M49.1818 90.4C49.2952 90.3867 49.3918 90.42 49.4718 90.5C49.5585 90.58 49.6018 90.6767 49.6018 90.79C49.6018 90.9033 49.5585 90.9967 49.4718 91.07C49.3918 91.15 49.2952 91.1867 49.1818 91.18C48.8018 91.14 48.4952 91.12 48.2618 91.12C48.0085 91.12 47.7018 91.14 47.3418 91.18C47.2285 91.1867 47.1318 91.15 47.0518 91.07C46.9718 90.9967 46.9318 90.9033 46.9318 90.79C46.9318 90.6767 46.9718 90.58 47.0518 90.5C47.1318 90.42 47.2285 90.3867 47.3418 90.4C47.4152 90.4067 47.4885 90.4133 47.5618 90.42C47.6418 90.4267 47.7218 90.4333 47.8018 90.44H47.8218C47.8885 90.44 47.9052 90.4067 47.8718 90.34L47.3418 89.17C47.3218 89.1233 47.2885 89.1 47.2418 89.1H43.7218C43.6818 89.1 43.6485 89.1233 43.6218 89.17L43.0918 90.34C43.0852 90.3533 43.0818 90.37 43.0818 90.39C43.0818 90.4233 43.1018 90.44 43.1418 90.44C43.2218 90.44 43.3018 90.4367 43.3818 90.43C43.4685 90.4167 43.5485 90.4067 43.6218 90.4C43.7352 90.3867 43.8318 90.42 43.9118 90.5C43.9918 90.58 44.0318 90.6767 44.0318 90.79C44.0318 90.9033 43.9918 90.9967 43.9118 91.07C43.8318 91.15 43.7352 91.1867 43.6218 91.18C43.2352 91.14 42.9285 91.12 42.7018 91.12C42.4418 91.12 42.1352 91.14 41.7818 91.18C41.6685 91.1867 41.5685 91.15 41.4818 91.07C41.4018 90.9967 41.3618 90.9033 41.3618 90.79C41.3618 90.6767 41.4018 90.58 41.4818 90.5C41.5685 90.42 41.6685 90.3867 41.7818 90.4C41.9018 90.42 42.0252 90.43 42.1518 90.43H42.1718C42.2052 90.43 42.2352 90.41 42.2618 90.37L45.1818 83.88C45.2418 83.7533 45.3418 83.69 45.4818 83.69C45.6152 83.69 45.7118 83.7533 45.7718 83.88L48.7018 90.37C48.7285 90.4167 48.7652 90.4367 48.8118 90.43C48.9385 90.43 49.0618 90.42 49.1818 90.4ZM45.5418 85.15C45.5352 85.11 45.5152 85.09 45.4818 85.09C45.4618 85.09 45.4418 85.11 45.4218 85.15L44.0218 88.27C44.0152 88.2833 44.0118 88.2967 44.0118 88.31C44.0118 88.3567 44.0385 88.38 44.0918 88.38H46.8718C46.9518 88.38 46.9752 88.3433 46.9418 88.27L45.5418 85.15ZM55.135 90.41C55.235 90.41 55.3183 90.4467 55.385 90.52C55.4583 90.5933 55.495 90.6833 55.495 90.79C55.495 90.9033 55.4516 90.9967 55.365 91.07C55.285 91.15 55.1883 91.18 55.075 91.16C54.815 91.1133 54.615 91.09 54.475 91.09C54.335 91.09 54.2116 91.0467 54.105 90.96C53.9983 90.8667 53.9283 90.7567 53.895 90.63C53.875 90.5633 53.8416 90.5533 53.795 90.6C53.6083 90.7733 53.395 90.91 53.155 91.01C52.9216 91.1167 52.6683 91.17 52.395 91.17C51.9883 91.17 51.6283 91.0933 51.315 90.94C51.0016 90.7867 50.7383 90.5833 50.525 90.33C50.3116 90.07 50.1483 89.7833 50.035 89.47C49.9283 89.1567 49.875 88.8433 49.875 88.53C49.875 88.2233 49.9216 87.9167 50.015 87.61C50.115 87.2967 50.265 87.01 50.465 86.75C50.665 86.49 50.915 86.2833 51.215 86.13C51.5216 85.97 51.8816 85.89 52.295 85.89C52.5883 85.89 52.8583 85.9567 53.105 86.09C53.3583 86.2167 53.5783 86.38 53.765 86.58C53.785 86.6 53.805 86.61 53.825 86.61C53.8583 86.61 53.875 86.5867 53.875 86.54V84.38C53.875 84.3267 53.8516 84.3 53.805 84.3C53.725 84.3 53.645 84.3067 53.565 84.32C53.4916 84.3267 53.4183 84.33 53.345 84.33C53.2516 84.33 53.1716 84.2967 53.105 84.23C53.0383 84.1633 53.005 84.0833 53.005 83.99C53.005 83.8833 53.0416 83.7967 53.115 83.73C53.1883 83.6567 53.2783 83.6267 53.385 83.64C53.4783 83.6467 53.5816 83.6567 53.695 83.67C53.8083 83.6767 53.9183 83.6833 54.025 83.69C54.1916 83.6967 54.3316 83.7567 54.445 83.87C54.565 83.9833 54.625 84.1233 54.625 84.29V90.4C54.625 90.4533 54.6516 90.48 54.705 90.48C54.7783 90.48 54.8516 90.47 54.925 90.45C54.9983 90.4233 55.0683 90.41 55.135 90.41ZM52.385 90.44C52.7183 90.44 53.005 90.3767 53.245 90.25C53.4916 90.1167 53.6883 89.95 53.835 89.75C53.8616 89.7167 53.875 89.68 53.875 89.64V87.42C53.875 87.38 53.8616 87.3433 53.835 87.31C53.6483 87.0967 53.425 86.9267 53.165 86.8C52.9116 86.6733 52.6483 86.61 52.375 86.61C52.0283 86.61 51.725 86.6967 51.465 86.87C51.2116 87.0367 51.0116 87.2633 50.865 87.55C50.725 87.8367 50.655 88.16 50.655 88.52C50.655 88.8733 50.7283 89.1967 50.875 89.49C51.0283 89.7833 51.235 90.0167 51.495 90.19C51.755 90.3567 52.0516 90.44 52.385 90.44ZM61.6698 85.89C61.7765 85.8767 61.8665 85.9067 61.9398 85.98C62.0131 86.0467 62.0498 86.13 62.0498 86.23C62.0498 86.3367 62.0131 86.4233 61.9398 86.49C61.8665 86.5567 61.7765 86.5867 61.6698 86.58L61.3998 86.56C61.3465 86.56 61.3098 86.58 61.2898 86.62L59.4098 90.93C59.3431 91.0967 59.2165 91.18 59.0298 91.18C58.8498 91.18 58.7198 91.0967 58.6398 90.93L56.6898 86.62C56.6698 86.58 56.6331 86.56 56.5798 86.56L56.3098 86.58C56.2031 86.5867 56.1131 86.5567 56.0398 86.49C55.9665 86.4233 55.9298 86.3367 55.9298 86.23C55.9298 86.13 55.9665 86.0467 56.0398 85.98C56.1131 85.9067 56.2031 85.8767 56.3098 85.89C56.4831 85.9033 56.6331 85.9133 56.7598 85.92C56.8865 85.9267 57.0131 85.93 57.1398 85.93C57.2598 85.93 57.3831 85.9267 57.5098 85.92C57.6431 85.9133 57.7931 85.9033 57.9598 85.89C58.0665 85.8767 58.1565 85.9067 58.2298 85.98C58.3031 86.0467 58.3398 86.13 58.3398 86.23C58.3398 86.33 58.3065 86.4133 58.2398 86.48C58.1731 86.5467 58.0931 86.58 57.9998 86.58C57.9398 86.58 57.8731 86.5767 57.7998 86.57C57.7331 86.5633 57.6631 86.5567 57.5898 86.55H57.5698C57.5031 86.55 57.4865 86.5833 57.5198 86.65L58.9798 89.94C58.9998 89.98 59.0198 90 59.0398 90C59.0731 90 59.0931 89.98 59.0998 89.94L60.4698 86.65C60.4765 86.6367 60.4798 86.62 60.4798 86.6C60.4798 86.5667 60.4598 86.55 60.4198 86.55C60.3531 86.55 60.2798 86.5567 60.1998 86.57C60.1265 86.5767 60.0531 86.58 59.9798 86.58C59.8865 86.58 59.8065 86.5467 59.7398 86.48C59.6731 86.4133 59.6398 86.33 59.6398 86.23C59.6398 86.13 59.6765 86.0467 59.7498 85.98C59.8231 85.9067 59.9131 85.8767 60.0198 85.89C60.1931 85.9033 60.3431 85.9133 60.4698 85.92C60.6031 85.9267 60.7298 85.93 60.8498 85.93C60.9698 85.93 61.0931 85.9267 61.2198 85.92C61.3531 85.9133 61.5031 85.9033 61.6698 85.89ZM63.9668 85.01C63.8001 85.01 63.6568 84.9533 63.5368 84.84C63.4234 84.72 63.3668 84.5767 63.3668 84.41C63.3668 84.2367 63.4234 84.0933 63.5368 83.98C63.6568 83.8667 63.8001 83.81 63.9668 83.81C64.1334 83.81 64.2734 83.8667 64.3868 83.98C64.5068 84.0933 64.5668 84.2367 64.5668 84.41C64.5668 84.5767 64.5068 84.72 64.3868 84.84C64.2734 84.9533 64.1334 85.01 63.9668 85.01ZM63.0968 91.18C62.9834 91.1867 62.8834 91.15 62.7968 91.07C62.7168 90.9967 62.6768 90.9033 62.6768 90.79C62.6768 90.6767 62.7168 90.58 62.7968 90.5C62.8834 90.42 62.9834 90.3867 63.0968 90.4C63.1568 90.4067 63.2201 90.4133 63.2868 90.42C63.3601 90.4267 63.4301 90.4333 63.4968 90.44H63.5168C63.5634 90.44 63.5868 90.41 63.5868 90.35V86.71C63.5868 86.6567 63.5634 86.63 63.5168 86.63C63.3701 86.63 63.2301 86.64 63.0968 86.66C62.9834 86.6667 62.8834 86.6333 62.7968 86.56C62.7168 86.48 62.6768 86.3833 62.6768 86.27C62.6768 86.1567 62.7168 86.06 62.7968 85.98C62.8834 85.9 62.9834 85.8667 63.0968 85.88C63.2834 85.8933 63.4134 85.9067 63.4868 85.92C63.5601 85.9267 63.6101 85.93 63.6368 85.93C63.6701 85.93 63.7068 85.93 63.7468 85.93C63.9134 85.93 64.0534 85.99 64.1668 86.11C64.2868 86.2233 64.3468 86.3633 64.3468 86.53V90.35C64.3468 90.41 64.3701 90.44 64.4168 90.44C64.4901 90.44 64.5601 90.4367 64.6268 90.43C64.7001 90.4167 64.7701 90.4067 64.8368 90.4C64.9501 90.3867 65.0468 90.42 65.1268 90.5C65.2068 90.58 65.2468 90.6767 65.2468 90.79C65.2468 90.9033 65.2068 90.9967 65.1268 91.07C65.0468 91.15 64.9501 91.1867 64.8368 91.18C64.7034 91.1667 64.5601 91.1533 64.4068 91.14C64.2534 91.1267 64.1068 91.12 63.9668 91.12C63.8268 91.12 63.6801 91.1267 63.5268 91.14C63.3734 91.1533 63.2301 91.1667 63.0968 91.18ZM67.234 87.38C67.234 87.5467 67.314 87.6767 67.474 87.77C67.6407 87.8633 67.8507 87.94 68.104 88C68.364 88.06 68.6374 88.1233 68.924 88.19C69.2107 88.2567 69.4807 88.3433 69.734 88.45C69.994 88.5567 70.204 88.7067 70.364 88.9C70.5307 89.0867 70.614 89.34 70.614 89.66C70.614 89.9333 70.5274 90.1867 70.354 90.42C70.1874 90.6467 69.9374 90.83 69.604 90.97C69.2774 91.1033 68.874 91.17 68.394 91.17C68.1407 91.17 67.8807 91.14 67.614 91.08C67.354 91.02 67.114 90.9367 66.894 90.83C66.674 90.7167 66.4974 90.5867 66.364 90.44C66.2307 90.2867 66.164 90.1167 66.164 89.93C66.164 89.77 66.2207 89.6333 66.334 89.52C66.4474 89.4067 66.5807 89.35 66.734 89.35C66.9074 89.35 67.044 89.41 67.144 89.53C67.2507 89.6433 67.304 89.7767 67.304 89.93C67.304 89.9567 67.3007 89.9833 67.294 90.01C67.294 90.03 67.2907 90.0533 67.284 90.08C67.2774 90.0867 67.274 90.1 67.274 90.12C67.274 90.1533 67.294 90.18 67.334 90.2C67.4807 90.26 67.644 90.3167 67.824 90.37C68.004 90.4233 68.194 90.45 68.394 90.45C68.654 90.45 68.894 90.42 69.114 90.36C69.3407 90.2933 69.5207 90.2 69.654 90.08C69.794 89.96 69.864 89.81 69.864 89.63C69.864 89.4433 69.7807 89.3 69.614 89.2C69.454 89.0933 69.244 89.01 68.984 88.95C68.7307 88.8833 68.4607 88.82 68.174 88.76C67.8874 88.6933 67.614 88.61 67.354 88.51C67.1007 88.4033 66.8907 88.2633 66.724 88.09C66.564 87.91 66.484 87.6733 66.484 87.38C66.484 87.1133 66.5574 86.87 66.704 86.65C66.8574 86.4233 67.084 86.2433 67.384 86.11C67.6907 85.97 68.0707 85.9 68.524 85.9C68.8307 85.9 69.1207 85.94 69.394 86.02C69.674 86.1 69.9007 86.2167 70.074 86.37C70.254 86.5233 70.344 86.7067 70.344 86.92C70.344 86.94 70.344 86.9633 70.344 86.99C70.344 87.01 70.3407 87.03 70.334 87.05C70.314 87.1833 70.2507 87.2967 70.144 87.39C70.0374 87.4767 69.914 87.52 69.774 87.52C69.6074 87.52 69.4707 87.4633 69.364 87.35C69.2574 87.2367 69.204 87.1033 69.204 86.95C69.204 86.93 69.204 86.91 69.204 86.89C69.204 86.8633 69.2074 86.84 69.214 86.82C69.2207 86.8133 69.224 86.8 69.224 86.78C69.224 86.74 69.204 86.7167 69.164 86.71C68.9974 86.6367 68.784 86.6 68.524 86.6C68.324 86.6 68.124 86.63 67.924 86.69C67.724 86.7433 67.5574 86.8267 67.424 86.94C67.2974 87.0533 67.234 87.2 67.234 87.38ZM74.3514 91.18C73.978 91.18 73.628 91.1133 73.3014 90.98C72.9747 90.84 72.688 90.65 72.4414 90.41C72.1947 90.1633 72.0014 89.88 71.8614 89.56C71.7214 89.24 71.6514 88.8967 71.6514 88.53C71.6514 88.1633 71.7214 87.82 71.8614 87.5C72.0014 87.18 72.1947 86.9 72.4414 86.66C72.688 86.4133 72.9747 86.2233 73.3014 86.09C73.628 85.95 73.978 85.88 74.3514 85.88C74.7247 85.88 75.0714 85.95 75.3914 86.09C75.718 86.2233 76.0047 86.4133 76.2514 86.66C76.498 86.9 76.6914 87.18 76.8314 87.5C76.9714 87.82 77.0414 88.1633 77.0414 88.53C77.0414 88.8967 76.9714 89.24 76.8314 89.56C76.6914 89.88 76.498 90.1633 76.2514 90.41C76.0047 90.65 75.718 90.84 75.3914 90.98C75.0714 91.1133 74.7247 91.18 74.3514 91.18ZM74.3514 90.47C74.7314 90.47 75.068 90.38 75.3614 90.2C75.6547 90.02 75.8847 89.7833 76.0514 89.49C76.218 89.1967 76.3014 88.8767 76.3014 88.53C76.3014 88.1833 76.2147 87.8633 76.0414 87.57C75.8747 87.2767 75.6447 87.04 75.3514 86.86C75.058 86.68 74.7247 86.59 74.3514 86.59C73.9647 86.59 73.6247 86.68 73.3314 86.86C73.038 87.04 72.808 87.2767 72.6414 87.57C72.4747 87.8633 72.3914 88.1833 72.3914 88.53C72.3914 88.8767 72.4747 89.1967 72.6414 89.49C72.8147 89.7833 73.048 90.02 73.3414 90.2C73.6347 90.38 73.9714 90.47 74.3514 90.47ZM81.9224 86.22C81.9624 86.3067 81.9824 86.39 81.9824 86.47C81.9824 86.6233 81.9257 86.7533 81.8124 86.86C81.699 86.9667 81.5657 87.02 81.4124 87.02C81.299 87.02 81.1957 86.99 81.1024 86.93C81.0157 86.8633 80.9457 86.7833 80.8924 86.69C80.8724 86.6433 80.8357 86.62 80.7824 86.62C80.5424 86.64 80.3124 86.74 80.0924 86.92C79.879 87.0933 79.689 87.3133 79.5224 87.58C79.3557 87.8467 79.2224 88.1333 79.1224 88.44C79.109 88.4667 79.1024 88.5033 79.1024 88.55V90.43C79.1024 90.4833 79.1257 90.51 79.1724 90.51C79.2524 90.51 79.329 90.5067 79.4024 90.5C79.4824 90.4867 79.5624 90.48 79.6424 90.48C79.7357 90.48 79.8157 90.5133 79.8824 90.58C79.949 90.6467 79.9824 90.73 79.9824 90.83C79.9824 90.93 79.9457 91.0133 79.8724 91.08C79.799 91.1533 79.709 91.1867 79.6024 91.18C79.3957 91.16 79.229 91.1433 79.1024 91.13C78.9757 91.1233 78.8524 91.12 78.7324 91.12C78.5924 91.12 78.459 91.1233 78.3324 91.13C78.2124 91.1433 78.0557 91.16 77.8624 91.18C77.7557 91.1867 77.6657 91.1533 77.5924 91.08C77.519 91.0133 77.4824 90.93 77.4824 90.83C77.4824 90.73 77.5157 90.6467 77.5824 90.58C77.649 90.5133 77.729 90.48 77.8224 90.48C77.889 90.48 77.959 90.4833 78.0324 90.49C78.1124 90.4967 78.189 90.5033 78.2624 90.51H78.2824C78.329 90.51 78.3524 90.4833 78.3524 90.43V86.71C78.3524 86.6567 78.329 86.63 78.2824 86.63C78.1357 86.63 77.9957 86.64 77.8624 86.66C77.749 86.6667 77.649 86.6333 77.5624 86.56C77.4824 86.48 77.4424 86.3833 77.4424 86.27C77.4424 86.1567 77.4824 86.0633 77.5624 85.99C77.649 85.91 77.749 85.8767 77.8624 85.89C78.0024 85.9033 78.109 85.9133 78.1824 85.92C78.2624 85.9267 78.339 85.93 78.4124 85.93C78.4924 85.93 78.599 85.93 78.7324 85.93C78.839 85.93 78.9257 85.9667 78.9924 86.04C79.0657 86.1133 79.1024 86.2 79.1024 86.3V86.88C79.1024 86.92 79.1124 86.9467 79.1324 86.96C79.159 86.9667 79.1857 86.9533 79.2124 86.92C79.4124 86.6267 79.649 86.3833 79.9224 86.19C80.2024 85.9967 80.529 85.8767 80.9024 85.83C80.9424 85.8233 80.9824 85.82 81.0224 85.82C81.0624 85.8133 81.1024 85.81 81.1424 85.81C81.3157 85.81 81.4724 85.84 81.6124 85.9C81.759 85.96 81.8624 86.0667 81.9224 86.22ZM87.9886 85.89C88.0886 85.8767 88.1753 85.9067 88.2486 85.98C88.322 86.0467 88.3586 86.1333 88.3586 86.24C88.3586 86.34 88.322 86.4267 88.2486 86.5C88.1753 86.5667 88.0886 86.5967 87.9886 86.59L87.8086 86.57H87.7886C87.7553 86.57 87.7253 86.59 87.6986 86.63L85.2386 92.11C84.7653 93.09 84.1686 93.58 83.4486 93.58C83.222 93.58 83.012 93.5267 82.8186 93.42C82.632 93.32 82.482 93.1833 82.3686 93.01C82.2553 92.8433 82.1986 92.66 82.1986 92.46C82.1986 92.2467 82.2586 92.07 82.3786 91.93C82.4986 91.7967 82.652 91.73 82.8386 91.73C82.9986 91.73 83.132 91.7867 83.2386 91.9C83.352 92.02 83.4086 92.16 83.4086 92.32C83.4086 92.4133 83.392 92.4933 83.3586 92.56C83.332 92.6333 83.2953 92.6867 83.2486 92.72C83.1953 92.7667 83.1886 92.8067 83.2286 92.84C83.302 92.8933 83.3786 92.92 83.4586 92.92C83.8853 92.92 84.2386 92.6067 84.5186 91.98L84.8786 91.16C84.892 91.12 84.892 91.08 84.8786 91.04L82.9386 86.62C82.912 86.58 82.882 86.56 82.8486 86.56C82.802 86.56 82.7553 86.5667 82.7086 86.58C82.662 86.5867 82.612 86.59 82.5586 86.59C82.4653 86.59 82.3853 86.5567 82.3186 86.49C82.252 86.4167 82.2186 86.3333 82.2186 86.24C82.2186 86.1333 82.2553 86.0467 82.3286 85.98C82.402 85.9067 82.4886 85.8767 82.5886 85.89C82.782 85.9033 82.9386 85.9133 83.0586 85.92C83.1853 85.9267 83.3053 85.93 83.4186 85.93C83.532 85.93 83.652 85.9267 83.7786 85.92C83.9053 85.9133 84.062 85.9033 84.2486 85.89C84.3486 85.8767 84.4353 85.9067 84.5086 85.98C84.582 86.0467 84.6186 86.1333 84.6186 86.24C84.6186 86.34 84.582 86.4267 84.5086 86.5C84.4353 86.5667 84.3486 86.5967 84.2486 86.59C84.182 86.5767 84.1086 86.57 84.0286 86.57C83.9486 86.5633 83.8686 86.5567 83.7886 86.55H83.7686C83.702 86.55 83.6853 86.5833 83.7186 86.65L85.2386 90.1C85.2586 90.14 85.2786 90.16 85.2986 90.16C85.332 90.16 85.352 90.14 85.3586 90.1L86.8986 86.64C86.9053 86.6267 86.9086 86.61 86.9086 86.59C86.9086 86.5567 86.8886 86.54 86.8486 86.54C86.762 86.54 86.672 86.5467 86.5786 86.56C86.492 86.5667 86.4086 86.5767 86.3286 86.59C86.2286 86.5967 86.142 86.5667 86.0686 86.5C85.9953 86.4267 85.9586 86.34 85.9586 86.24C85.9586 86.1333 85.9953 86.0467 86.0686 85.98C86.142 85.9067 86.2286 85.8767 86.3286 85.89C86.522 85.9033 86.6786 85.9133 86.7986 85.92C86.9253 85.9267 87.0453 85.93 87.1586 85.93C87.272 85.93 87.392 85.9267 87.5186 85.92C87.6453 85.9133 87.802 85.9033 87.9886 85.89ZM97.9261 89.09C98.0327 89.1833 98.0861 89.3 98.0861 89.44C98.0861 89.5333 98.0627 89.6133 98.0161 89.68C97.6894 90.1333 97.2761 90.4967 96.7761 90.77C96.2761 91.0433 95.7327 91.18 95.1461 91.18C94.6527 91.18 94.1894 91.0833 93.7561 90.89C93.3227 90.69 92.9427 90.42 92.6161 90.08C92.2894 89.7333 92.0327 89.3333 91.8461 88.88C91.6594 88.4267 91.5661 87.9433 91.5661 87.43C91.5661 86.91 91.6594 86.4267 91.8461 85.98C92.0327 85.5267 92.2894 85.13 92.6161 84.79C92.9427 84.4433 93.3227 84.1733 93.7561 83.98C94.1894 83.7867 94.6527 83.69 95.1461 83.69C95.6461 83.69 96.0861 83.77 96.4661 83.93C96.8527 84.09 97.1961 84.3133 97.4961 84.6C97.6294 84.7267 97.7494 84.8667 97.8561 85.02C97.9627 85.1733 98.0161 85.34 98.0161 85.52C98.0161 85.6867 97.9561 85.8333 97.8361 85.96C97.7161 86.0867 97.5694 86.15 97.3961 86.15C97.2161 86.15 97.0694 86.0867 96.9561 85.96C96.8427 85.8333 96.7861 85.69 96.7861 85.53C96.7861 85.4033 96.8194 85.2933 96.8861 85.2C96.9194 85.1467 96.9161 85.1033 96.8761 85.07C96.6627 84.8367 96.4027 84.6733 96.0961 84.58C95.7961 84.48 95.4794 84.43 95.1461 84.43C94.6061 84.43 94.1261 84.5633 93.7061 84.83C93.2861 85.0967 92.9527 85.4567 92.7061 85.91C92.4661 86.3567 92.3461 86.8633 92.3461 87.43C92.3461 87.9967 92.4694 88.5033 92.7161 88.95C92.9627 89.3967 93.2961 89.75 93.7161 90.01C94.1427 90.2633 94.6194 90.39 95.1461 90.39C95.6261 90.39 96.0661 90.2833 96.4661 90.07C96.8661 89.85 97.1894 89.5533 97.4361 89.18C97.5094 89.0733 97.6061 89.02 97.7261 89.02C97.8061 89.02 97.8727 89.0433 97.9261 89.09ZM101.9 91.18C101.527 91.18 101.177 91.1133 100.85 90.98C100.524 90.84 100.237 90.65 99.9902 90.41C99.7435 90.1633 99.5502 89.88 99.4102 89.56C99.2702 89.24 99.2002 88.8967 99.2002 88.53C99.2002 88.1633 99.2702 87.82 99.4102 87.5C99.5502 87.18 99.7435 86.9 99.9902 86.66C100.237 86.4133 100.524 86.2233 100.85 86.09C101.177 85.95 101.527 85.88 101.9 85.88C102.274 85.88 102.62 85.95 102.94 86.09C103.267 86.2233 103.554 86.4133 103.8 86.66C104.047 86.9 104.24 87.18 104.38 87.5C104.52 87.82 104.59 88.1633 104.59 88.53C104.59 88.8967 104.52 89.24 104.38 89.56C104.24 89.88 104.047 90.1633 103.8 90.41C103.554 90.65 103.267 90.84 102.94 90.98C102.62 91.1133 102.274 91.18 101.9 91.18ZM101.9 90.47C102.28 90.47 102.617 90.38 102.91 90.2C103.204 90.02 103.434 89.7833 103.6 89.49C103.767 89.1967 103.85 88.8767 103.85 88.53C103.85 88.1833 103.764 87.8633 103.59 87.57C103.424 87.2767 103.194 87.04 102.9 86.86C102.607 86.68 102.274 86.59 101.9 86.59C101.514 86.59 101.174 86.68 100.88 86.86C100.587 87.04 100.357 87.2767 100.19 87.57C100.024 87.8633 99.9402 88.1833 99.9402 88.53C99.9402 88.8767 100.024 89.1967 100.19 89.49C100.364 89.7833 100.597 90.02 100.89 90.2C101.184 90.38 101.52 90.47 101.9 90.47ZM111.067 90.43C111.18 90.4167 111.277 90.4467 111.357 90.52C111.437 90.5933 111.477 90.6867 111.477 90.8C111.477 90.9067 111.437 90.9967 111.357 91.07C111.277 91.15 111.18 91.1833 111.067 91.17C110.974 91.1567 110.874 91.14 110.767 91.12C110.66 91.1067 110.557 91.0967 110.457 91.09C110.29 91.0833 110.147 91.0233 110.027 90.91C109.914 90.7967 109.857 90.6567 109.857 90.49V90.35C109.857 90.31 109.844 90.2867 109.817 90.28C109.797 90.2667 109.774 90.2767 109.747 90.31C109.547 90.5633 109.317 90.77 109.057 90.93C108.797 91.09 108.5 91.17 108.167 91.17C107.707 91.17 107.304 91.05 106.957 90.81C106.81 90.7033 106.664 90.5467 106.517 90.34C106.377 90.1267 106.307 89.8467 106.307 89.5V86.63C106.307 86.5767 106.284 86.55 106.237 86.55C106.157 86.55 106.077 86.5567 105.997 86.57C105.924 86.5767 105.85 86.58 105.777 86.58C105.684 86.58 105.604 86.5467 105.537 86.48C105.47 86.4133 105.437 86.33 105.437 86.23C105.437 86.13 105.474 86.0467 105.547 85.98C105.62 85.9067 105.707 85.8767 105.807 85.89C105.96 85.9033 106.08 85.9133 106.167 85.92C106.26 85.92 106.357 85.9233 106.457 85.93C106.624 85.93 106.764 85.99 106.877 86.11C106.997 86.2233 107.057 86.3633 107.057 86.53V89.5C107.057 89.72 107.104 89.8933 107.197 90.02C107.29 90.14 107.404 90.23 107.537 90.29C107.67 90.35 107.797 90.3867 107.917 90.4C108.037 90.4133 108.12 90.42 108.167 90.42C108.5 90.42 108.807 90.3133 109.087 90.1C109.374 89.88 109.62 89.6067 109.827 89.28C109.847 89.24 109.857 89.2033 109.857 89.17V86.63C109.857 86.5767 109.834 86.55 109.787 86.55C109.714 86.55 109.634 86.5567 109.547 86.57C109.467 86.5767 109.394 86.58 109.327 86.58C109.234 86.58 109.154 86.5467 109.087 86.48C109.02 86.4133 108.987 86.33 108.987 86.23C108.987 86.13 109.024 86.0467 109.097 85.98C109.17 85.9067 109.257 85.8767 109.357 85.89C109.51 85.9033 109.63 85.9133 109.717 85.92C109.81 85.92 109.907 85.9233 110.007 85.93C110.174 85.93 110.314 85.99 110.427 86.11C110.547 86.2233 110.607 86.3633 110.607 86.53V90.4C110.607 90.4533 110.634 90.48 110.687 90.48C110.754 90.48 110.817 90.4733 110.877 90.46C110.937 90.4467 111 90.4367 111.067 90.43ZM117.814 90.48C117.908 90.48 117.988 90.5133 118.054 90.58C118.121 90.6467 118.154 90.73 118.154 90.83C118.154 90.93 118.118 91.0133 118.044 91.08C117.971 91.1467 117.884 91.1767 117.784 91.17C117.578 91.15 117.414 91.1367 117.294 91.13C117.174 91.1233 117.061 91.12 116.954 91.12C116.834 91.12 116.714 91.1233 116.594 91.13C116.481 91.1433 116.324 91.1567 116.124 91.17C116.024 91.1767 115.938 91.1467 115.864 91.08C115.791 91.0133 115.754 90.93 115.754 90.83C115.754 90.73 115.788 90.6467 115.854 90.58C115.921 90.5133 116.001 90.48 116.094 90.48C116.154 90.48 116.218 90.4833 116.284 90.49C116.351 90.4967 116.418 90.5033 116.484 90.51H116.504C116.551 90.51 116.574 90.4833 116.574 90.43V87.65C116.574 87.3567 116.524 87.1233 116.424 86.95C116.331 86.77 116.148 86.68 115.874 86.68C115.648 86.68 115.381 86.7433 115.074 86.87C114.768 86.9967 114.411 87.2467 114.004 87.62C113.971 87.6533 113.954 87.6933 113.954 87.74V90.43C113.954 90.4833 113.978 90.51 114.024 90.51C114.098 90.51 114.168 90.5067 114.234 90.5C114.301 90.4867 114.368 90.48 114.434 90.48C114.528 90.48 114.608 90.5133 114.674 90.58C114.741 90.6467 114.774 90.73 114.774 90.83C114.774 90.93 114.738 91.0133 114.664 91.08C114.591 91.1467 114.504 91.1767 114.404 91.17C114.198 91.15 114.034 91.1367 113.914 91.13C113.794 91.1233 113.681 91.12 113.574 91.12C113.454 91.12 113.334 91.1233 113.214 91.13C113.101 91.1433 112.944 91.1567 112.744 91.17C112.644 91.1767 112.558 91.1467 112.484 91.08C112.411 91.0133 112.374 90.93 112.374 90.83C112.374 90.73 112.408 90.6467 112.474 90.58C112.541 90.5133 112.621 90.48 112.714 90.48C112.781 90.48 112.848 90.4833 112.914 90.49C112.981 90.4967 113.048 90.5033 113.114 90.51H113.134C113.181 90.51 113.204 90.4833 113.204 90.43V86.63C113.204 86.5767 113.181 86.55 113.134 86.55C113.054 86.55 112.978 86.5567 112.904 86.57C112.838 86.5767 112.768 86.58 112.694 86.58C112.601 86.58 112.521 86.5467 112.454 86.48C112.388 86.4067 112.354 86.3233 112.354 86.23C112.354 86.13 112.391 86.0433 112.464 85.97C112.538 85.8967 112.624 85.8667 112.724 85.88C112.818 85.8867 112.918 85.8967 113.024 85.91C113.138 85.9167 113.248 85.9233 113.354 85.93C113.521 85.9367 113.661 86 113.774 86.12C113.894 86.2333 113.954 86.3733 113.954 86.54V86.78C113.954 86.82 113.964 86.8433 113.984 86.85C114.011 86.8567 114.038 86.8467 114.064 86.82C114.438 86.4667 114.781 86.2233 115.094 86.09C115.414 85.95 115.714 85.88 115.994 85.88C116.341 85.88 116.611 85.9633 116.804 86.13C116.998 86.29 117.134 86.5067 117.214 86.78C117.294 87.0467 117.334 87.34 117.334 87.66V90.43C117.334 90.4833 117.361 90.51 117.414 90.51C117.488 90.51 117.554 90.5067 117.614 90.5C117.681 90.4867 117.748 90.48 117.814 90.48ZM123.565 89.76C123.645 89.8467 123.685 89.9467 123.685 90.06C123.685 90.1667 123.652 90.2533 123.585 90.32C123.338 90.5867 123.045 90.7967 122.705 90.95C122.365 91.0967 122.015 91.17 121.655 91.17C121.228 91.17 120.848 91.0967 120.515 90.95C120.182 90.7967 119.898 90.5933 119.665 90.34C119.432 90.08 119.255 89.7933 119.135 89.48C119.015 89.1667 118.955 88.85 118.955 88.53C118.955 88.0367 119.065 87.59 119.285 87.19C119.512 86.79 119.818 86.4733 120.205 86.24C120.592 86 121.032 85.88 121.525 85.88C122.305 85.88 122.915 86.1467 123.355 86.68C123.448 86.7867 123.528 86.91 123.595 87.05C123.668 87.1833 123.705 87.3167 123.705 87.45C123.705 87.5767 123.678 87.6833 123.625 87.77C123.578 87.8567 123.512 87.9267 123.425 87.98C123.338 88.0333 123.238 88.06 123.125 88.06C122.965 88.06 122.828 88.0033 122.715 87.89C122.608 87.77 122.555 87.63 122.555 87.47C122.555 87.41 122.565 87.3533 122.585 87.3C122.612 87.24 122.638 87.19 122.665 87.15C122.698 87.1033 122.698 87.06 122.665 87.02C122.545 86.8667 122.385 86.7533 122.185 86.68C121.985 86.6067 121.765 86.57 121.525 86.57C121.165 86.57 120.848 86.6567 120.575 86.83C120.302 87.0033 120.088 87.2367 119.935 87.53C119.782 87.8233 119.705 88.1567 119.705 88.53C119.705 88.8767 119.785 89.1967 119.945 89.49C120.112 89.7767 120.338 90.01 120.625 90.19C120.912 90.3633 121.245 90.45 121.625 90.45C121.918 90.45 122.188 90.3867 122.435 90.26C122.682 90.1333 122.898 89.97 123.085 89.77C123.158 89.6967 123.242 89.66 123.335 89.66C123.428 89.66 123.505 89.6933 123.565 89.76ZM125.91 85.01C125.743 85.01 125.6 84.9533 125.48 84.84C125.367 84.72 125.31 84.5767 125.31 84.41C125.31 84.2367 125.367 84.0933 125.48 83.98C125.6 83.8667 125.743 83.81 125.91 83.81C126.077 83.81 126.217 83.8667 126.33 83.98C126.45 84.0933 126.51 84.2367 126.51 84.41C126.51 84.5767 126.45 84.72 126.33 84.84C126.217 84.9533 126.077 85.01 125.91 85.01ZM125.04 91.18C124.927 91.1867 124.827 91.15 124.74 91.07C124.66 90.9967 124.62 90.9033 124.62 90.79C124.62 90.6767 124.66 90.58 124.74 90.5C124.827 90.42 124.927 90.3867 125.04 90.4C125.1 90.4067 125.163 90.4133 125.23 90.42C125.303 90.4267 125.373 90.4333 125.44 90.44H125.46C125.507 90.44 125.53 90.41 125.53 90.35V86.71C125.53 86.6567 125.507 86.63 125.46 86.63C125.313 86.63 125.173 86.64 125.04 86.66C124.927 86.6667 124.827 86.6333 124.74 86.56C124.66 86.48 124.62 86.3833 124.62 86.27C124.62 86.1567 124.66 86.06 124.74 85.98C124.827 85.9 124.927 85.8667 125.04 85.88C125.227 85.8933 125.357 85.9067 125.43 85.92C125.503 85.9267 125.553 85.93 125.58 85.93C125.613 85.93 125.65 85.93 125.69 85.93C125.857 85.93 125.997 85.99 126.11 86.11C126.23 86.2233 126.29 86.3633 126.29 86.53V90.35C126.29 90.41 126.313 90.44 126.36 90.44C126.433 90.44 126.503 90.4367 126.57 90.43C126.643 90.4167 126.713 90.4067 126.78 90.4C126.893 90.3867 126.99 90.42 127.07 90.5C127.15 90.58 127.19 90.6767 127.19 90.79C127.19 90.9033 127.15 90.9967 127.07 91.07C126.99 91.15 126.893 91.1867 126.78 91.18C126.647 91.1667 126.503 91.1533 126.35 91.14C126.197 91.1267 126.05 91.12 125.91 91.12C125.77 91.12 125.623 91.1267 125.47 91.14C125.317 91.1533 125.173 91.1667 125.04 91.18ZM130.127 90.48C130.221 90.48 130.301 90.5133 130.367 90.58C130.434 90.6467 130.467 90.73 130.467 90.83C130.467 90.93 130.431 91.0133 130.357 91.08C130.284 91.1533 130.194 91.1867 130.087 91.18C129.881 91.16 129.714 91.1433 129.587 91.13C129.461 91.1233 129.337 91.12 129.217 91.12C129.077 91.12 128.944 91.1233 128.817 91.13C128.697 91.1433 128.541 91.16 128.347 91.18C128.241 91.1867 128.151 91.1533 128.077 91.08C128.004 91.0133 127.967 90.93 127.967 90.83C127.967 90.73 128.001 90.6467 128.067 90.58C128.134 90.5133 128.214 90.48 128.307 90.48C128.374 90.48 128.444 90.4833 128.517 90.49C128.597 90.4967 128.674 90.5033 128.747 90.51H128.767C128.814 90.51 128.837 90.4833 128.837 90.43V84.38C128.837 84.3267 128.814 84.3 128.767 84.3C128.687 84.3 128.607 84.3067 128.527 84.32C128.454 84.3267 128.381 84.33 128.307 84.33C128.214 84.33 128.134 84.2967 128.067 84.23C128.001 84.1633 127.967 84.0833 127.967 83.99C127.967 83.8833 128.004 83.7967 128.077 83.73C128.151 83.6567 128.241 83.6267 128.347 83.64C128.447 83.6467 128.554 83.6567 128.667 83.67C128.781 83.6767 128.891 83.6833 128.997 83.69C129.157 83.6967 129.297 83.7567 129.417 83.87C129.537 83.9833 129.597 84.1233 129.597 84.29V90.43C129.597 90.4833 129.624 90.51 129.677 90.51C129.757 90.51 129.834 90.5067 129.907 90.5C129.987 90.4867 130.061 90.48 130.127 90.48Z" fill="#F0F0F0"/>
<path d="M94.3787 53.1306V19.9217H97.2353C97.2353 23.9687 100.092 36.7047 105.805 36.7047C111.519 36.7047 114.018 23.9687 113.661 19.9217H116.875V53.1306H111.876C111.995 48.1314 110.947 43.8464 105.805 43.8464C99.3778 43.8464 98.6637 47.0602 98.6637 53.1306H94.3787Z" fill="#46ABD7"/>
<circle cx="105.448" cy="24.9209" r="5.35627" fill="#46ABD7"/>
<path d="M105.665 13.1371C104.786 13.1371 104.976 18.1363 105.837 18.1363C106.703 18.1363 106.848 13.1371 105.665 13.1371Z" fill="#46ABD7"/>
<path d="M102.799 13.2873C101.934 13.4418 102.999 18.3298 103.847 18.1784C104.7 18.0262 103.964 13.0794 102.799 13.2873Z" fill="#46ABD7"/>
<path d="M99.9245 14.11C99.0866 14.376 100.781 19.0833 101.602 18.8226C102.427 18.5604 101.052 13.7519 99.9245 14.11Z" fill="#46ABD7"/>
<path d="M108.883 13.2622C108.026 13.0705 107.121 17.9908 107.962 18.1787C108.807 18.3676 110.038 13.5201 108.883 13.2622Z" fill="#46ABD7"/>
<path d="M112.203 14.1173C111.424 13.7095 109.274 18.2266 110.037 18.6262C110.805 19.028 113.251 14.6661 112.203 14.1173Z" fill="#46ABD7"/>
<path d="M72.6431 53V29.8982H74.6303C74.6303 32.7135 76.6176 41.5733 80.5921 41.5733C84.5666 41.5733 86.3054 32.7135 86.057 29.8982H88.2927V53H84.815C84.8978 49.5223 84.1691 46.5414 80.5921 46.5414C76.1208 46.5414 75.6239 48.7771 75.6239 53H72.6431Z" fill="#91BD5D"/>
<circle cx="80.3437" cy="33.3759" r="3.7261" fill="#91BD5D"/>
<path d="M80.4942 25.1785C79.8827 25.1785 80.0149 28.6562 80.6142 28.6562C81.2169 28.6562 81.3173 25.1785 80.4942 25.1785Z" fill="#91BD5D"/>
<path d="M78.5008 25.283C77.8988 25.3904 78.64 28.7908 79.23 28.6855C79.8233 28.5796 79.3111 25.1383 78.5008 25.283Z" fill="#91BD5D"/>
<path d="M76.5011 25.8552C75.9182 26.0403 77.0966 29.3149 77.6678 29.1335C78.2422 28.9512 77.2855 25.6061 76.5011 25.8552Z" fill="#91BD5D"/>
<path d="M82.7333 25.2655C82.1365 25.1321 81.5072 28.555 82.0921 28.6856C82.6803 28.817 83.5366 25.4449 82.7333 25.2655Z" fill="#91BD5D"/>
<path d="M85.0427 25.8604C84.5009 25.5767 83.005 28.719 83.5359 28.997C84.0698 29.2765 85.7719 26.2421 85.0427 25.8604Z" fill="#91BD5D"/>
<path d="M47.4298 53.1306V27.141H49.6655C49.6655 30.3082 51.9011 40.2755 56.3724 40.2755C60.8438 40.2755 62.8 30.3082 62.5205 27.141H65.0356V53.1306H61.1232C61.2164 49.2182 60.3966 45.8647 56.3724 45.8647C51.3422 45.8647 50.7833 48.3798 50.7833 53.1306H47.4298Z" fill="#F3D66F"/>
<circle cx="56.093" cy="31.0534" r="4.19186" fill="#F3D66F"/>
<path d="M56.2624 21.8313C55.5744 21.8313 55.7231 25.7437 56.3974 25.7437C57.0753 25.7437 57.1883 21.8313 56.2624 21.8313Z" fill="#F3D66F"/>
<path d="M54.0197 21.9489C53.3425 22.0698 54.1764 25.8952 54.8401 25.7767C55.5075 25.6576 54.9313 21.7862 54.0197 21.9489Z" fill="#F3D66F"/>
<path d="M51.77 22.5927C51.1143 22.8009 52.44 26.4849 53.0826 26.2808C53.7288 26.0757 52.6526 22.3125 51.77 22.5927Z" fill="#F3D66F"/>
<path d="M58.7814 21.9292C58.1099 21.7792 57.402 25.6299 58.0601 25.7769C58.7217 25.9247 59.685 22.1311 58.7814 21.9292Z" fill="#F3D66F"/>
<path d="M61.3794 22.5985C60.7699 22.2793 59.087 25.8144 59.6843 26.1271C60.2849 26.4416 62.1998 23.0279 61.3794 22.5985Z" fill="#F3D66F"/>
<path d="M17 53.1306V18.4778H19.9809C19.9809 22.7008 22.9618 35.9905 28.9235 35.9905C34.8853 35.9905 37.4935 22.7008 37.1209 18.4778H40.4744V53.1306H35.2579C35.3821 47.914 34.2891 43.4427 28.9235 43.4427C22.2165 43.4427 21.4713 46.7962 21.4713 53.1306H17Z" fill="#BA543E"/>
<circle cx="28.5509" cy="23.6944" r="5.58915" fill="#BA543E"/>
<path d="M28.7767 11.3983C27.8594 11.3983 28.0577 16.6148 28.9567 16.6148C29.8607 16.6148 30.0113 11.3983 28.7767 11.3983Z" fill="#BA543E"/>
<path d="M25.7865 11.555C24.8835 11.7162 25.9954 16.8167 26.8804 16.6587C27.7703 16.4999 27.0019 11.338 25.7865 11.555Z" fill="#BA543E"/>
<path d="M22.7869 12.4134C21.9126 12.691 23.6803 17.6029 24.5371 17.3309C25.3987 17.0573 23.9637 12.0398 22.7869 12.4134Z" fill="#BA543E"/>
<path d="M32.1354 11.5287C31.2401 11.3287 30.2963 16.463 31.1737 16.659C32.0559 16.8561 33.3403 11.7979 32.1354 11.5287Z" fill="#BA543E"/>
<path d="M35.5995 12.4211C34.7869 11.9956 32.5429 16.709 33.3393 17.126C34.1401 17.5453 36.6933 12.9937 35.5995 12.4211Z" fill="#BA543E"/>
<rect x="136.425" y="30.4932" width="3.63014" height="22.5068" fill="#6C4521"/>
<path fill-rule="evenodd" clip-rule="evenodd" d="M146.589 10.5274C146.589 11.0605 146.549 11.5843 146.473 12.0961C150.748 13.4354 153.849 17.4274 153.849 22.1438C153.849 27.958 149.136 32.6712 143.322 32.6712C141.542 32.6712 139.865 32.2295 138.395 31.4497C136.524 34.3677 133.251 36.3014 129.527 36.3014C123.713 36.3014 119 31.5881 119 25.774C119 20.8916 122.324 16.7855 126.832 15.5948C126.005 14.0915 125.534 12.3644 125.534 10.5274C125.534 4.71328 130.248 0 136.062 0C141.876 0 146.589 4.71328 146.589 10.5274Z" fill="#509C58"/>
<rect x="155.64" y="39.4342" width="2.18803" height="13.5658" fill="#6C4521"/>
<path fill-rule="evenodd" clip-rule="evenodd" d="M161.766 27.4001C161.766 27.7214 161.742 28.0371 161.696 28.3456C164.273 29.1528 166.142 31.559 166.142 34.4018C166.142 37.9062 163.301 40.7471 159.797 40.7471C158.724 40.7471 157.713 40.4808 156.827 40.0108C155.699 41.7696 153.727 42.9351 151.482 42.9351C147.978 42.9351 145.137 40.0942 145.137 36.5898C145.137 33.647 147.14 31.1721 149.858 30.4544C149.359 29.5483 149.076 28.5073 149.076 27.4001C149.076 23.8957 151.916 21.0548 155.421 21.0548C158.925 21.0548 161.766 23.8957 161.766 27.4001Z" fill="#509C58"/>
</svg>
